<svg width="83" height="58" viewBox="0 0 83 58" fill="none" xmlns="http://www.w3.org/2000/svg">
<path d="M13.1484 5.35156C13.6953 5.35156 14.1406 5.50781 14.4844 5.82031C14.8438 6.11719 15 6.66406 14.9531 7.46094C14.9375 7.72656 14.875 8.22656 14.7656 8.96094C14.6562 9.67969 14.5234 10.5312 14.3672 11.5156C14.2109 12.5 14.0312 13.5625 13.8281 14.7031C13.6406 15.8281 13.4609 16.9297 13.2891 18.0078H13.7812C13.9375 18.0078 14.1094 18 14.2969 17.9844C14.4844 17.9688 14.6797 17.9453 14.8828 17.9141C14.8047 18.1016 14.7188 18.2812 14.625 18.4531C14.5312 18.6094 14.4375 18.75 14.3438 18.875C14.2344 19.0156 14.125 19.1406 14.0156 19.25C13.875 19.4219 13.7109 19.5781 13.5234 19.7188C13.3359 19.8438 13.1562 19.9453 12.9844 20.0234C12.875 20.7891 12.7812 21.4766 12.7031 22.0859C12.6406 22.6797 12.6016 23.1719 12.5859 23.5625C12.5547 24.1562 12.5703 24.7109 12.6328 25.2266C12.6797 25.6797 12.7734 26.1406 12.9141 26.6094C13.0547 27.0781 13.2812 27.4531 13.5938 27.7344L10.875 28.625C10.6875 28.3594 10.5469 28 10.4531 27.5469C10.375 27.1094 10.3203 26.6719 10.2891 26.2344C10.2422 25.7188 10.2344 25.1875 10.2656 24.6406C10.2969 24.0938 10.3828 23.3828 10.5234 22.5078C10.6641 21.6172 10.8203 20.6484 10.9922 19.6016C10.6797 19.5078 10.3359 19.4297 9.96094 19.3672C9.60156 19.3047 9.19531 19.2734 8.74219 19.2734C8.33594 19.2734 7.90625 19.2891 7.45312 19.3203C7.01562 19.3516 6.57812 19.3906 6.14062 19.4375C5.95312 20.125 5.76562 20.8516 5.57812 21.6172C5.375 22.4453 5.1875 23.1484 5.01562 23.7266C4.85938 24.3203 4.70312 24.8125 4.54688 25.2031C4.40625 25.5938 4.25781 25.9062 4.10156 26.1406C3.96094 26.375 3.80469 26.5469 3.63281 26.6562C3.44531 26.75 3.21094 26.8359 2.92969 26.9141C2.66406 26.9922 2.32812 27.0703 1.92188 27.1484C1.51562 27.2266 0.992188 27.2891 0.351562 27.3359C0.585938 27.0547 0.789062 26.7969 0.960938 26.5625C1.13281 26.3281 1.30469 26.0391 1.47656 25.6953C1.64844 25.3516 1.84375 24.9062 2.0625 24.3594C2.26562 23.8281 2.53125 23.125 2.85938 22.25C3 21.8906 3.14062 21.5 3.28125 21.0781C3.4375 20.6406 3.60156 20.1953 3.77344 19.7422C3.21094 19.8203 2.73438 19.8906 2.34375 19.9531C1.95312 20.0156 1.71875 20.0625 1.64062 20.0938C1.51562 20.1094 1.41406 20.1094 1.33594 20.0938C1.13281 20.0625 1.02344 19.9609 1.00781 19.7891C1.02344 19.5703 1.10156 19.4219 1.24219 19.3438C1.36719 19.2656 1.5625 19.1719 1.82812 19.0625C1.95312 19 2.24219 18.8906 2.69531 18.7344C3.13281 18.5625 3.67188 18.3828 4.3125 18.1953C4.54688 17.5391 4.77344 16.8906 4.99219 16.25C5.22656 15.5938 5.45312 14.9688 5.67188 14.375C5.89062 13.7812 6.10156 13.2266 6.30469 12.7109C6.50781 12.1797 6.69531 11.7266 6.86719 11.3516C7.13281 10.7734 7.46875 10.1406 7.875 9.45312C8.29688 8.75 8.77344 8.09375 9.30469 7.48438C9.85156 6.875 10.4453 6.36719 11.0859 5.96094C11.7422 5.55469 12.4297 5.35156 13.1484 5.35156ZM12.8906 10.2266C13.0625 9.52344 13.1797 8.94531 13.2422 8.49219C13.3047 8.03906 13.3281 7.6875 13.3125 7.4375C13.2969 7.17187 13.2422 6.99219 13.1484 6.89844C13.0703 6.78906 12.9688 6.73438 12.8438 6.73438C12.6406 6.73438 12.3906 6.8125 12.0938 6.96875C11.7969 7.125 11.4844 7.35156 11.1562 7.64844C10.8281 7.92969 10.5 8.28906 10.1719 8.72656C9.85938 9.14844 9.57812 9.63281 9.32812 10.1797C8.96875 10.9922 8.5625 11.9922 8.10938 13.1797C7.65625 14.3516 7.16406 15.8516 6.63281 17.6797C6.94531 17.6328 7.25 17.5938 7.54688 17.5625C7.85938 17.5312 8.16406 17.5156 8.46094 17.5156C8.99219 17.5156 9.5 17.5391 9.98438 17.5859C10.4688 17.6172 10.9141 17.6562 11.3203 17.7031C11.4609 16.9531 11.6016 16.2188 11.7422 15.5C11.8984 14.7656 12.0469 14.0703 12.1875 13.4141C12.3281 12.7578 12.4531 12.1562 12.5625 11.6094C12.6875 11.0625 12.7969 10.6016 12.8906 10.2266ZM23.7188 18.5234C23.6406 19.0078 23.5625 19.4688 23.4844 19.9062C23.4219 20.3438 23.3828 20.6953 23.3672 20.9609C23.3516 21.3516 23.4219 21.6328 23.5781 21.8047C23.7344 21.9766 23.9062 22.0625 24.0938 22.0625C24.3125 22.0625 24.5781 21.9531 24.8906 21.7344C25.2188 21.5156 25.5625 21.2422 25.9219 20.9141C26.2812 20.5859 26.6406 20.2266 27 19.8359C27.3594 19.4453 27.6875 19.0781 27.9844 18.7344C28.2969 18.375 28.5547 18.0625 28.7578 17.7969C28.9766 17.5312 29.125 17.3594 29.2031 17.2812C29.2969 17.1875 29.3906 17.1328 29.4844 17.1172C29.5938 17.1016 29.6797 17.1172 29.7422 17.1641C29.8047 17.2109 29.8359 17.2969 29.8359 17.4219C29.8359 17.5469 29.7734 17.7031 29.6484 17.8906C29.4609 18.1875 29.2188 18.5391 28.9219 18.9453C28.625 19.3359 28.2969 19.7422 27.9375 20.1641C27.5781 20.5859 27.1953 21 26.7891 21.4062C26.3984 21.8125 26 22.1719 25.5938 22.4844C25.2031 22.7969 24.8203 23.0469 24.4453 23.2344C24.0859 23.4375 23.7578 23.5391 23.4609 23.5391C23.2422 23.5391 23.0312 23.4766 22.8281 23.3516C22.6406 23.2266 22.4688 23.0625 22.3125 22.8594C22.1562 22.6562 22.0312 22.4297 21.9375 22.1797C21.8594 21.9297 21.8281 21.6797 21.8438 21.4297C21.8594 21.3203 21.8828 21.1328 21.9141 20.8672C21.2578 21.6016 20.5938 22.1875 19.9219 22.625C19.2656 23.0469 18.6328 23.2578 18.0234 23.2578C17.8047 23.2578 17.5703 23.2031 17.3203 23.0938C17.0703 22.9844 16.8438 22.8047 16.6406 22.5547C16.4531 22.3047 16.2969 21.9766 16.1719 21.5703C16.0469 21.1641 16 20.6719 16.0312 20.0938C16.0781 19.1875 16.2578 18.3281 16.5703 17.5156C16.8828 16.7031 17.2734 16 17.7422 15.4062C18.2266 14.7969 18.7656 14.3203 19.3594 13.9766C19.9688 13.6172 20.5781 13.4375 21.1875 13.4375C21.4531 13.4375 21.6953 13.5078 21.9141 13.6484C22.1328 13.7734 22.3203 13.9453 22.4766 14.1641C22.6328 14.3672 22.7578 14.5938 22.8516 14.8438C22.9609 15.0938 23.0391 15.3281 23.0859 15.5469C23.1953 15.0938 23.2969 14.6484 23.3906 14.2109C23.4844 13.7734 23.5781 13.3594 23.6719 12.9688C23.8281 12.3906 23.9922 11.7656 24.1641 11.0938C24.3203 10.5156 24.5 9.85156 24.7031 9.10156C24.9062 8.35156 25.1328 7.5625 25.3828 6.73438C25.5391 6.60937 25.6875 6.51562 25.8281 6.45312C25.9688 6.39063 26.1016 6.34375 26.2266 6.3125C26.3672 6.26562 26.5 6.24219 26.625 6.24219C26.7812 6.24219 26.9219 6.26562 27.0469 6.3125C27.1719 6.34375 27.2734 6.44531 27.3516 6.61719C27.4453 6.77344 27.5078 7.01562 27.5391 7.34375C27.5703 7.67188 27.5703 8.11719 27.5391 8.67969C27.5078 9.36719 27.3828 10.1172 27.1641 10.9297C26.9609 11.7422 26.6875 12.5859 26.3438 13.4609C26 14.3203 25.6016 15.1875 25.1484 16.0625C24.7109 16.9219 24.2344 17.7422 23.7188 18.5234ZM22.3359 18.8281C22.3984 18.5312 22.4531 18.2344 22.5 17.9375C22.5625 17.6406 22.6328 17.3359 22.7109 17.0234C22.6797 17.0391 22.6484 17.0547 22.6172 17.0703C22.6016 17.0859 22.5781 17.1016 22.5469 17.1172C22.375 17.1953 22.2578 17.1953 22.1953 17.1172C22.1328 17.0234 22.1016 16.8828 22.1016 16.6953C22.1016 16.6016 22.0938 16.4375 22.0781 16.2031C22.0625 15.9531 22.0156 15.7031 21.9375 15.4531C21.875 15.1875 21.7734 14.9609 21.6328 14.7734C21.4922 14.5703 21.2969 14.4688 21.0469 14.4688C20.6875 14.4688 20.3203 14.6562 19.9453 15.0312C19.5703 15.3906 19.2188 15.8359 18.8906 16.3672C18.5625 16.8828 18.2891 17.4375 18.0703 18.0312C17.8516 18.625 17.7266 19.1562 17.6953 19.625C17.6641 20.375 17.7578 20.9141 17.9766 21.2422C18.1953 21.5703 18.4922 21.7344 18.8672 21.7344C19.1484 21.7344 19.4531 21.625 19.7812 21.4062C20.125 21.1875 20.4531 20.9219 20.7656 20.6094C21.0938 20.2969 21.3906 19.9766 21.6562 19.6484C21.9375 19.3203 22.1641 19.0469 22.3359 18.8281ZM26.9766 22.8828C26.8672 23.0547 26.75 23.1641 26.625 23.2109C26.4844 23.2734 26.3672 23.2812 26.2734 23.2344C26.1641 23.2031 26.0938 23.125 26.0625 23C26.0312 22.875 26.0625 22.7188 26.1562 22.5312C26.2031 22.4375 26.3125 22.2266 26.4844 21.8984C26.6406 21.5703 26.8359 21.1797 27.0703 20.7266C27.2891 20.2578 27.5312 19.7578 27.7969 19.2266C28.0625 18.6797 28.3125 18.1641 28.5469 17.6797C28.7969 17.1953 29.0234 16.7656 29.2266 16.3906C29.4297 16 29.5781 15.7188 29.6719 15.5469C29.5 15.3906 29.3828 15.2812 29.3203 15.2188C29.2578 15.1406 29.2109 14.9844 29.1797 14.75C29.1484 14.5469 29.1953 14.2812 29.3203 13.9531C29.4453 13.625 29.6094 13.3125 29.8125 13.0156C30.0156 12.7031 30.2422 12.4375 30.4922 12.2188C30.7422 12 30.9844 11.8906 31.2188 11.8906C31.6562 11.8906 31.9609 12.0312 32.1328 12.3125C32.3203 12.5938 32.4297 12.8828 32.4609 13.1797C32.4922 13.3828 32.4766 13.6406 32.4141 13.9531C32.3516 14.2656 32.2344 14.5469 32.0625 14.7969C32.1094 14.8281 32.1719 14.8672 32.25 14.9141C32.3281 14.9453 32.4531 14.9609 32.625 14.9609C32.875 14.9609 33.0469 14.9453 33.1406 14.9141C33.25 14.8828 33.4141 14.8672 33.6328 14.8672C33.8984 14.8672 34.1172 14.9375 34.2891 15.0781C34.4609 15.2031 34.6016 15.3672 34.7109 15.5703C34.8203 15.7578 34.8984 15.9688 34.9453 16.2031C35.0078 16.4219 35.0469 16.625 35.0625 16.8125C35.1094 17.2031 35.0078 17.6094 34.7578 18.0312C34.5078 18.4531 34.2031 18.9141 33.8438 19.4141C33.625 19.7266 33.4062 20.0781 33.1875 20.4688C32.9688 20.8594 32.875 21.2109 32.9062 21.5234C32.9375 21.7266 32.9922 21.8906 33.0703 22.0156C33.1484 22.1406 33.3672 22.2031 33.7266 22.2031C33.9922 22.2031 34.2812 22.1094 34.5938 21.9219C34.9219 21.7188 35.25 21.4688 35.5781 21.1719C35.9219 20.8594 36.2578 20.5234 36.5859 20.1641C36.9141 19.7891 37.2188 19.4297 37.5 19.0859C37.7812 18.7266 38.0156 18.4062 38.2031 18.125C38.4062 17.8438 38.5547 17.6406 38.6484 17.5156C38.7266 17.3906 38.8281 17.3047 38.9531 17.2578C39.0781 17.2109 39.1875 17.2109 39.2812 17.2578C39.375 17.3047 39.4297 17.3984 39.4453 17.5391C39.4766 17.6797 39.4219 17.8672 39.2812 18.1016C39.1875 18.2578 39.0234 18.5078 38.7891 18.8516C38.5703 19.1953 38.2969 19.5781 37.9688 20C37.6562 20.4219 37.3047 20.8594 36.9141 21.3125C36.5234 21.75 36.1094 22.1562 35.6719 22.5312C35.25 22.8906 34.8203 23.1875 34.3828 23.4219C33.9609 23.6562 33.5547 23.7734 33.1641 23.7734C32.7578 23.7734 32.4219 23.6953 32.1562 23.5391C31.8906 23.3828 31.6719 23.1953 31.5 22.9766C31.3438 22.7422 31.2266 22.4922 31.1484 22.2266C31.0859 21.9453 31.0625 21.6875 31.0781 21.4531C31.0938 21.2656 31.1406 21.0703 31.2188 20.8672C31.3125 20.6484 31.4141 20.4297 31.5234 20.2109C31.6484 19.9766 31.7734 19.75 31.8984 19.5312C32.0391 19.2969 32.1641 19.0703 32.2734 18.8516C32.5391 18.3984 32.75 18.0156 32.9062 17.7031C33.0781 17.375 33.1641 17.1016 33.1641 16.8828C33.1641 16.7422 33.1328 16.6172 33.0703 16.5078C33.0078 16.3984 32.9062 16.3438 32.7656 16.3438C32.6719 16.3438 32.6016 16.3516 32.5547 16.3672C32.5234 16.3672 32.4844 16.3672 32.4375 16.3672C32.4062 16.3672 32.3516 16.375 32.2734 16.3906C32.2109 16.3906 32.1094 16.3906 31.9688 16.3906C31.7656 16.3906 31.5938 16.3594 31.4531 16.2969C31.3125 16.2344 31.1797 16.1875 31.0547 16.1562C30.9922 16.2656 30.8516 16.5 30.6328 16.8594C30.4141 17.2188 30.1562 17.6406 29.8594 18.125C29.5781 18.6094 29.2734 19.1172 28.9453 19.6484C28.6328 20.1797 28.3359 20.6797 28.0547 21.1484C27.7734 21.6016 27.5391 21.9922 27.3516 22.3203C27.1484 22.6328 27.0234 22.8203 26.9766 22.8828ZM42.7734 9.19531C42.7266 9.36719 42.6328 9.53906 42.4922 9.71094C42.3672 9.86719 42.2188 10 42.0469 10.1094C41.8906 10.2031 41.7266 10.2656 41.5547 10.2969C41.3828 10.3281 41.2422 10.2969 41.1328 10.2031C40.8047 9.95312 40.6328 9.6875 40.6172 9.40625C40.6016 9.10938 40.6719 8.83594 40.8281 8.58594C40.9844 8.32031 41.1797 8.10156 41.4141 7.92969C41.6484 7.74219 41.8516 7.63281 42.0234 7.60156C42.1953 7.57031 42.3359 7.60938 42.4453 7.71875C42.5703 7.8125 42.6641 7.94531 42.7266 8.11719C42.7891 8.27344 42.8203 8.45312 42.8203 8.65625C42.8359 8.85938 42.8203 9.03906 42.7734 9.19531ZM39.5391 14.1875C39.6172 14.0938 39.7656 14.0156 39.9844 13.9531C40.2031 13.8906 40.4297 13.8438 40.6641 13.8125C40.8984 13.7656 41.1094 13.7422 41.2969 13.7422C41.5 13.7266 41.6172 13.7266 41.6484 13.7422C41.6641 13.7578 41.625 13.9219 41.5312 14.2344C41.4375 14.5469 41.3203 14.9141 41.1797 15.3359C41.0391 15.7578 40.8906 16.1953 40.7344 16.6484C40.5781 17.0859 40.4609 17.4453 40.3828 17.7266C40.3047 18.0078 40.2109 18.3281 40.1016 18.6875C39.9922 19.0312 39.8906 19.375 39.7969 19.7188C39.7188 20.0469 39.6641 20.3594 39.6328 20.6562C39.6016 20.9531 39.625 21.1797 39.7031 21.3359C39.7812 21.5234 39.8672 21.6562 39.9609 21.7344C40.0547 21.7969 40.1562 21.8281 40.2656 21.8281C40.5781 21.8281 40.9688 21.6562 41.4375 21.3125C41.9219 20.9688 42.4062 20.5625 42.8906 20.0938C43.3906 19.6094 43.8516 19.125 44.2734 18.6406C44.6953 18.1406 45.0078 17.7422 45.2109 17.4453C45.3359 17.2891 45.4609 17.1875 45.5859 17.1406C45.7266 17.0938 45.8359 17.1016 45.9141 17.1641C46.0078 17.2266 46.0547 17.3281 46.0547 17.4688C46.0703 17.6094 46.0234 17.7734 45.9141 17.9609C45.6641 18.3984 45.2969 18.9219 44.8125 19.5312C44.3281 20.125 43.8125 20.7031 43.2656 21.2656C42.7188 21.8125 42.1797 22.2812 41.6484 22.6719C41.1328 23.0625 40.7109 23.2656 40.3828 23.2812C40.1172 23.2969 39.8516 23.25 39.5859 23.1406C39.3359 23.0469 39.1016 22.9141 38.8828 22.7422C38.6797 22.5547 38.5078 22.3438 38.3672 22.1094C38.2266 21.8594 38.1484 21.6016 38.1328 21.3359C38.0859 20.9453 38.0859 20.4141 38.1328 19.7422C38.1797 19.0547 38.2656 18.3594 38.3906 17.6562C38.5156 16.9375 38.6719 16.2578 38.8594 15.6172C39.0625 14.9766 39.2891 14.5 39.5391 14.1875ZM56.2266 18.3359C56.0078 18.6484 55.7266 19.0391 55.3828 19.5078C55.0391 19.9609 54.6797 20.4219 54.3047 20.8906C53.9453 21.3438 53.5859 21.7656 53.2266 22.1562C52.8828 22.5312 52.5938 22.7969 52.3594 22.9531C52.2031 23.0469 52.0234 23.125 51.8203 23.1875C51.6172 23.25 51.4062 23.2891 51.1875 23.3047C50.9844 23.3203 50.7891 23.3047 50.6016 23.2578C50.4141 23.2266 50.25 23.1641 50.1094 23.0703C49.9688 22.9609 49.8516 22.8047 49.7578 22.6016C49.6797 22.4297 49.6016 22.2031 49.5234 21.9219C49.4609 21.6406 49.4375 21.2891 49.4531 20.8672C49.0781 21.4922 48.6641 21.9766 48.2109 22.3203C47.7578 22.6484 47.3281 22.8906 46.9219 23.0469C46.4531 23.2188 45.9844 23.3203 45.5156 23.3516C45.2969 23.3516 45.0625 23.2734 44.8125 23.1172C44.5625 22.9766 44.3516 22.75 44.1797 22.4375C44.0078 22.1094 43.8984 21.6953 43.8516 21.1953C43.8047 20.6797 43.8672 20.0703 44.0391 19.3672C44.2578 18.4141 44.6016 17.5469 45.0703 16.7656C45.5547 15.9844 46.0781 15.3203 46.6406 14.7734C47.2031 14.2109 47.7578 13.7891 48.3047 13.5078C48.8516 13.2266 49.3047 13.1016 49.6641 13.1328C50.0859 13.2109 50.4297 13.3359 50.6953 13.5078C50.9141 13.6641 51.0547 13.8984 51.1172 14.2109C51.1953 14.5078 51.0703 14.9062 50.7422 15.4062C50.9609 15.3594 51.1406 15.3281 51.2812 15.3125C51.4375 15.2969 51.5547 15.2891 51.6328 15.2891C51.7266 15.2891 51.7891 15.2969 51.8203 15.3125C51.8359 15.3438 51.8438 15.4141 51.8438 15.5234C51.8438 15.6172 51.8203 15.7969 51.7734 16.0625C51.7266 16.3281 51.6562 16.6875 51.5625 17.1406C51.4688 17.5938 51.3438 18.1797 51.1875 18.8984C51.1562 19.0391 51.125 19.1719 51.0938 19.2969C51.0781 19.4062 51.0547 19.5234 51.0234 19.6484C51.0078 19.7578 50.9844 19.8906 50.9531 20.0469C50.9219 20.2031 50.8828 20.3984 50.8359 20.6328C50.8203 20.7734 50.8125 20.9297 50.8125 21.1016C50.8281 21.2578 50.8594 21.4062 50.9062 21.5469C50.9531 21.6875 51.0234 21.8047 51.1172 21.8984C51.2266 21.9766 51.375 22.0156 51.5625 22.0156C51.7188 22.0156 51.9219 21.9219 52.1719 21.7344C52.4219 21.5312 52.6875 21.2812 52.9688 20.9844C53.25 20.6719 53.5391 20.3359 53.8359 19.9766C54.1484 19.6016 54.4375 19.2422 54.7031 18.8984C54.9688 18.5547 55.2031 18.25 55.4062 17.9844C55.625 17.7188 55.7812 17.5234 55.875 17.3984C56 17.2578 56.125 17.1797 56.25 17.1641C56.375 17.1328 56.4688 17.1641 56.5312 17.2578C56.5938 17.3516 56.6016 17.4922 56.5547 17.6797C56.5234 17.8672 56.4141 18.0859 56.2266 18.3359ZM49.3594 19.3672C49.4375 19.0547 49.5312 18.6875 49.6406 18.2656C49.75 17.8438 49.8438 17.4375 49.9219 17.0469C50 16.6562 50.0547 16.3359 50.0859 16.0859C50.1328 15.8203 50.125 15.6953 50.0625 15.7109C49.9844 15.7266 49.8984 15.75 49.8047 15.7812C49.7266 15.8125 49.625 15.8359 49.5 15.8516C49.375 15.8672 49.25 15.8906 49.125 15.9219C49.25 15.6719 49.3203 15.4688 49.3359 15.3125C49.3672 15.1406 49.375 15.0078 49.3594 14.9141C49.3438 14.8047 49.3125 14.7188 49.2656 14.6562C49.0938 14.5156 48.7891 14.6328 48.3516 15.0078C47.9297 15.3672 47.4375 16.0391 46.875 17.0234C46.6406 17.4297 46.4531 17.8672 46.3125 18.3359C46.1719 18.7891 46.0703 19.2188 46.0078 19.625C45.9609 20.0312 45.9531 20.3906 45.9844 20.7031C46.0156 21 46.0781 21.1953 46.1719 21.2891C46.3438 21.4609 46.5391 21.5469 46.7578 21.5469C46.9766 21.5312 47.1953 21.4688 47.4141 21.3594C47.6484 21.2344 47.875 21.0781 48.0938 20.8906C48.3281 20.7031 48.5312 20.5078 48.7031 20.3047C48.8906 20.1016 49.0391 19.9141 49.1484 19.7422C49.2734 19.5703 49.3438 19.4453 49.3594 19.3672ZM61.6172 23.5859C61.2578 23.5859 60.9453 23.5156 60.6797 23.375C60.4297 23.25 60.2266 23.0781 60.0703 22.8594C59.9141 22.6406 59.8125 22.3906 59.7656 22.1094C59.7188 21.8125 59.7344 21.5 59.8125 21.1719C59.8594 20.9531 59.9375 20.6641 60.0469 20.3047C60.1562 19.9297 60.2656 19.5312 60.375 19.1094C60.5 18.6719 60.6094 18.2422 60.7031 17.8203C60.8125 17.3828 60.8828 16.9922 60.9141 16.6484C60.9453 16.2891 60.9297 16 60.8672 15.7812C60.8047 15.5469 60.6719 15.4297 60.4688 15.4297C60.2188 15.4297 59.9609 15.5156 59.6953 15.6875C59.4297 15.8438 59.1562 16.0625 58.875 16.3438C58.6094 16.625 58.3359 16.9531 58.0547 17.3281C57.7891 17.6875 57.5234 18.0625 57.2578 18.4531C57.1172 18.9844 57 19.4531 56.9062 19.8594C56.8125 20.25 56.7266 20.6094 56.6484 20.9375C56.5859 21.25 56.5234 21.5312 56.4609 21.7812C56.3984 22.0156 56.3438 22.2422 56.2969 22.4609C56.25 22.6172 56.1094 22.7734 55.875 22.9297C55.6406 23.0703 55.3906 23.1875 55.125 23.2812C54.8594 23.375 54.6328 23.4219 54.4453 23.4219C54.2422 23.4219 54.1562 23.3516 54.1875 23.2109C54.2031 23.1172 54.2578 22.9062 54.3516 22.5781C54.4297 22.25 54.5312 21.8672 54.6562 21.4297C54.7656 20.9766 54.8828 20.5 55.0078 20C55.1328 19.5 55.25 19.0234 55.3594 18.5703C55.4375 18.2109 55.5234 17.8125 55.6172 17.375C55.6953 17 55.7891 16.5625 55.8984 16.0625C56.0234 15.5625 56.1641 15.0156 56.3203 14.4219C56.4297 14.3281 56.5391 14.2578 56.6484 14.2109C56.7734 14.1484 56.8984 14.1016 57.0234 14.0703C57.1484 14.0234 57.2812 13.9922 57.4219 13.9766C57.5469 13.9766 57.6719 13.9844 57.7969 14C57.9062 14.0156 58.0156 14.0469 58.125 14.0938C58.25 14.125 58.3594 14.1797 58.4531 14.2578C58.4062 14.3672 58.3516 14.5234 58.2891 14.7266C58.2266 14.9141 58.1641 15.1172 58.1016 15.3359C58.0391 15.5859 57.9609 15.8438 57.8672 16.1094C58.0703 15.8281 58.2969 15.5469 58.5469 15.2656C58.8125 14.9688 59.0938 14.7031 59.3906 14.4688C59.7031 14.2344 60.0312 14.0469 60.375 13.9062C60.7188 13.75 61.0703 13.6719 61.4297 13.6719C61.7266 13.6719 61.9922 13.7578 62.2266 13.9297C62.4609 14.1016 62.6406 14.3438 62.7656 14.6562C62.9062 14.9531 62.9844 15.3125 63 15.7344C63.0312 16.1562 62.9766 16.6172 62.8359 17.1172L62.5781 18.1484C62.5 18.4766 62.3984 18.8672 62.2734 19.3203C62.1641 19.7578 62.0234 20.2422 61.8516 20.7734C61.7578 21.1172 61.7188 21.4141 61.7344 21.6641C61.7656 21.9141 61.9219 22.0391 62.2031 22.0391C62.4844 22.0391 62.8359 21.8672 63.2578 21.5234C63.6953 21.1797 64.1328 20.7656 64.5703 20.2812C65.0078 19.7969 65.4219 19.3047 65.8125 18.8047C66.2031 18.2891 66.5 17.875 66.7031 17.5625C66.8438 17.3594 66.9766 17.2266 67.1016 17.1641C67.2266 17.1016 67.3203 17.0938 67.3828 17.1406C67.4609 17.1875 67.5 17.2969 67.5 17.4688C67.5 17.625 67.4375 17.8281 67.3125 18.0781C67.2031 18.2969 67.0312 18.5859 66.7969 18.9453C66.5781 19.3047 66.3125 19.6875 66 20.0938C65.6875 20.5 65.3516 20.9141 64.9922 21.3359C64.6328 21.7422 64.2578 22.1172 63.8672 22.4609C63.4766 22.7891 63.0859 23.0547 62.6953 23.2578C62.3203 23.4766 61.9609 23.5859 61.6172 23.5859Z" fill="white"/>
<path d="M33.6016 35.2422C33.5859 35.1953 33.6328 35.0781 33.7422 34.8906C33.8516 34.6875 33.9688 34.4453 34.0938 34.1641C34.2344 33.8672 34.3672 33.5391 34.4922 33.1797C34.6328 32.8047 34.7266 32.4219 34.7734 32.0312C34.8359 31.6406 34.8359 31.25 34.7734 30.8594C34.7109 30.4688 34.5469 30.0938 34.2812 29.7344C34.125 29.5469 33.8906 29.4453 33.5781 29.4297C33.2812 29.3984 32.9375 29.4453 32.5469 29.5703C32.1719 29.6797 31.7734 29.8594 31.3516 30.1094C30.9453 30.3438 30.5703 30.625 30.2266 30.9531C29.8828 31.2656 29.5859 31.6172 29.3359 32.0078C29.1016 32.3984 28.9688 32.7969 28.9375 33.2031C28.9062 33.5312 28.9141 33.8359 28.9609 34.1172C29.0234 34.3984 29.1016 34.6562 29.1953 34.8906C29.2891 35.125 29.3906 35.3438 29.5 35.5469C29.6094 35.75 29.7109 35.9297 29.8047 36.0859C29.9297 36.3047 30.125 36.5469 30.3906 36.8125C30.6562 37.0781 30.9453 37.3828 31.2578 37.7266C31.5703 38.0547 31.8828 38.4297 32.1953 38.8516C32.5078 39.2734 32.7812 39.75 33.0156 40.2812C33.25 40.8125 33.4141 41.4062 33.5078 42.0625C33.6016 42.7188 33.5938 43.4453 33.4844 44.2422C33.3125 45.3984 33.0391 46.3594 32.6641 47.125C32.2891 47.9062 31.875 48.5312 31.4219 49C30.9844 49.4688 30.5391 49.8047 30.0859 50.0078C29.6328 50.2266 29.2578 50.3672 28.9609 50.4297C28.7266 50.4766 28.4453 50.5156 28.1172 50.5469C27.8047 50.5938 27.4688 50.5859 27.1094 50.5234C26.7656 50.4766 26.4141 50.3672 26.0547 50.1953C25.6953 50.0391 25.375 49.7891 25.0938 49.4453C24.7656 49.0547 24.5078 48.6328 24.3203 48.1797C24.1484 47.7891 24.0234 47.3359 23.9453 46.8203C23.8516 46.3203 23.8906 45.7969 24.0625 45.25C24.1875 45.1094 24.3203 44.9844 24.4609 44.875C24.6016 44.7656 24.7422 44.6719 24.8828 44.5938C25.0391 44.5 25.2031 44.4141 25.375 44.3359C25.5781 44.2734 25.7812 44.2188 25.9844 44.1719C26.1562 44.1406 26.3359 44.125 26.5234 44.125C26.7266 44.1094 26.9141 44.1328 27.0859 44.1953C26.8516 44.4609 26.6875 44.7109 26.5938 44.9453C26.5312 45.0703 26.4844 45.1797 26.4531 45.2734C26.3906 45.5703 26.3672 45.9219 26.3828 46.3281C26.4141 46.75 26.5 47.1484 26.6406 47.5234C26.7969 47.9141 27.0156 48.2422 27.2969 48.5078C27.5781 48.7891 27.9531 48.9375 28.4219 48.9531C29.5625 48.9844 30.5312 48.0938 31.3281 46.2812C31.5938 45.7188 31.7266 45.1484 31.7266 44.5703C31.7422 43.9922 31.6719 43.4375 31.5156 42.9062C31.375 42.375 31.1797 41.8828 30.9297 41.4297C30.6953 40.9609 30.4531 40.5625 30.2031 40.2344C29.9531 39.9062 29.6484 39.5547 29.2891 39.1797C28.9453 38.7891 28.6016 38.3672 28.2578 37.9141C27.9141 37.4609 27.6016 36.9688 27.3203 36.4375C27.0547 35.9062 26.875 35.3281 26.7812 34.7031C26.6562 33.8281 26.7344 33.0312 27.0156 32.3125C27.3125 31.5781 27.7031 30.9375 28.1875 30.3906C28.6875 29.8438 29.2266 29.3984 29.8047 29.0547C30.3984 28.7109 30.9219 28.4922 31.375 28.3984C33.8906 27.8984 35.5391 28.3203 36.3203 29.6641C36.6484 30.1797 36.8281 30.7266 36.8594 31.3047C36.8906 31.8828 36.8516 32.4219 36.7422 32.9219C36.6484 33.4062 36.5234 33.8203 36.3672 34.1641C36.2266 34.4922 36.1328 34.6719 36.0859 34.7031C35.9922 34.7969 35.8438 34.8984 35.6406 35.0078C35.4375 35.1172 35.1094 35.2188 34.6562 35.3125C34.5312 35.3438 34.4062 35.3594 34.2812 35.3594C34.1719 35.3594 34.0547 35.3516 33.9297 35.3359C33.8047 35.3203 33.6953 35.2891 33.6016 35.2422ZM48.4141 41.3359C48.1953 41.6484 47.9141 42.0391 47.5703 42.5078C47.2266 42.9609 46.8672 43.4219 46.4922 43.8906C46.1328 44.3438 45.7734 44.7656 45.4141 45.1562C45.0703 45.5312 44.7812 45.7969 44.5469 45.9531C44.3906 46.0469 44.2109 46.125 44.0078 46.1875C43.8047 46.25 43.5938 46.2891 43.375 46.3047C43.1719 46.3203 42.9766 46.3047 42.7891 46.2578C42.6016 46.2266 42.4375 46.1641 42.2969 46.0703C42.1562 45.9609 42.0391 45.8047 41.9453 45.6016C41.8672 45.4297 41.7891 45.2031 41.7109 44.9219C41.6484 44.6406 41.625 44.2891 41.6406 43.8672C41.2656 44.4922 40.8516 44.9766 40.3984 45.3203C39.9453 45.6484 39.5156 45.8906 39.1094 46.0469C38.6406 46.2188 38.1719 46.3203 37.7031 46.3516C37.4844 46.3516 37.25 46.2734 37 46.1172C36.75 45.9766 36.5391 45.75 36.3672 45.4375C36.1953 45.1094 36.0859 44.6953 36.0391 44.1953C35.9922 43.6797 36.0547 43.0703 36.2266 42.3672C36.4453 41.4141 36.7891 40.5469 37.2578 39.7656C37.7422 38.9844 38.2656 38.3203 38.8281 37.7734C39.3906 37.2109 39.9453 36.7891 40.4922 36.5078C41.0391 36.2266 41.4922 36.1016 41.8516 36.1328C42.2734 36.2109 42.6172 36.3359 42.8828 36.5078C43.1016 36.6641 43.2422 36.8984 43.3047 37.2109C43.3828 37.5078 43.2578 37.9062 42.9297 38.4062C43.1484 38.3594 43.3281 38.3281 43.4688 38.3125C43.625 38.2969 43.7422 38.2891 43.8203 38.2891C43.9141 38.2891 43.9766 38.2969 44.0078 38.3125C44.0234 38.3438 44.0312 38.4141 44.0312 38.5234C44.0312 38.6172 44.0078 38.7969 43.9609 39.0625C43.9141 39.3281 43.8438 39.6875 43.75 40.1406C43.6562 40.5938 43.5312 41.1797 43.375 41.8984C43.3438 42.0391 43.3125 42.1719 43.2812 42.2969C43.2656 42.4062 43.2422 42.5234 43.2109 42.6484C43.1953 42.7578 43.1719 42.8906 43.1406 43.0469C43.1094 43.2031 43.0703 43.3984 43.0234 43.6328C43.0078 43.7734 43 43.9297 43 44.1016C43.0156 44.2578 43.0469 44.4062 43.0938 44.5469C43.1406 44.6875 43.2109 44.8047 43.3047 44.8984C43.4141 44.9766 43.5625 45.0156 43.75 45.0156C43.9062 45.0156 44.1094 44.9219 44.3594 44.7344C44.6094 44.5312 44.875 44.2812 45.1562 43.9844C45.4375 43.6719 45.7266 43.3359 46.0234 42.9766C46.3359 42.6016 46.625 42.2422 46.8906 41.8984C47.1562 41.5547 47.3906 41.25 47.5938 40.9844C47.8125 40.7188 47.9688 40.5234 48.0625 40.3984C48.1875 40.2578 48.3125 40.1797 48.4375 40.1641C48.5625 40.1328 48.6562 40.1641 48.7188 40.2578C48.7812 40.3516 48.7891 40.4922 48.7422 40.6797C48.7109 40.8672 48.6016 41.0859 48.4141 41.3359ZM41.5469 42.3672C41.625 42.0547 41.7188 41.6875 41.8281 41.2656C41.9375 40.8438 42.0312 40.4375 42.1094 40.0469C42.1875 39.6562 42.2422 39.3359 42.2734 39.0859C42.3203 38.8203 42.3125 38.6953 42.25 38.7109C42.1719 38.7266 42.0859 38.75 41.9922 38.7812C41.9141 38.8125 41.8125 38.8359 41.6875 38.8516C41.5625 38.8672 41.4375 38.8906 41.3125 38.9219C41.4375 38.6719 41.5078 38.4688 41.5234 38.3125C41.5547 38.1406 41.5625 38.0078 41.5469 37.9141C41.5312 37.8047 41.5 37.7188 41.4531 37.6562C41.2812 37.5156 40.9766 37.6328 40.5391 38.0078C40.1172 38.3672 39.625 39.0391 39.0625 40.0234C38.8281 40.4297 38.6406 40.8672 38.5 41.3359C38.3594 41.7891 38.2578 42.2188 38.1953 42.625C38.1484 43.0312 38.1406 43.3906 38.1719 43.7031C38.2031 44 38.2656 44.1953 38.3594 44.2891C38.5312 44.4609 38.7266 44.5469 38.9453 44.5469C39.1641 44.5312 39.3828 44.4688 39.6016 44.3594C39.8359 44.2344 40.0625 44.0781 40.2812 43.8906C40.5156 43.7031 40.7188 43.5078 40.8906 43.3047C41.0781 43.1016 41.2266 42.9141 41.3359 42.7422C41.4609 42.5703 41.5312 42.4453 41.5469 42.3672ZM52.4219 31.5156C52.4219 31.6562 52.3672 31.8281 52.2578 32.0312C52.1641 32.2188 52.0312 32.3984 51.8594 32.5703C51.7031 32.7266 51.5234 32.8672 51.3203 32.9922C51.1328 33.1016 50.9375 33.1562 50.7344 33.1562C50.5625 33.1562 50.4062 33.0703 50.2656 32.8984C50.125 32.7266 50.0625 32.4922 50.0781 32.1953C50.0781 31.9922 50.1328 31.7812 50.2422 31.5625C50.3672 31.3281 50.5156 31.1172 50.6875 30.9297C50.875 30.7422 51.0703 30.5938 51.2734 30.4844C51.4922 30.3594 51.6953 30.2969 51.8828 30.2969C52.1484 30.2969 52.3047 30.4219 52.3516 30.6719C52.4141 30.9219 52.4375 31.2031 52.4219 31.5156ZM44.2188 56.6406C43.7969 56.6406 43.4297 56.5234 43.1172 56.2891C42.8047 56.0547 42.5547 55.7578 42.3672 55.3984C42.1641 55.0391 42.0156 54.6484 41.9219 54.2266C41.8281 53.8047 41.7891 53.4062 41.8047 53.0312C41.8203 52.7031 41.9453 52.2812 42.1797 51.7656C42.3984 51.25 42.7109 50.6953 43.1172 50.1016C43.5234 49.5234 44.0156 48.9297 44.5938 48.3203C45.1719 47.7266 45.8125 47.1953 46.5156 46.7266C46.6094 46.2422 46.7109 45.75 46.8203 45.25C46.9141 44.7344 47.0078 44.2422 47.1016 43.7734C47.1953 43.2891 47.2891 42.8359 47.3828 42.4141C47.4922 41.9766 47.5938 41.5938 47.6875 41.2656C47.7969 40.8438 47.9141 40.3984 48.0391 39.9297C48.1484 39.5234 48.2734 39.0781 48.4141 38.5938C48.5547 38.0938 48.7031 37.5938 48.8594 37.0938C49.0156 37.0156 49.1641 36.9609 49.3047 36.9297C49.4453 36.8984 49.5703 36.875 49.6797 36.8594C49.8047 36.8438 49.9219 36.8438 50.0312 36.8594C50.1406 36.875 50.25 36.9062 50.3594 36.9531C50.5625 37.0312 50.7422 37.1719 50.8984 37.375C50.6328 38.2188 50.4062 38.9375 50.2188 39.5312C50.0469 40.125 49.8984 40.6172 49.7734 41.0078C49.6328 41.4609 49.5234 41.8438 49.4453 42.1562C49.3047 42.5938 49.1797 43.0938 49.0703 43.6562C48.9609 44.2031 48.8359 44.7969 48.6953 45.4375C49.3516 45.0312 50.0078 44.5547 50.6641 44.0078C51.3359 43.4609 51.9453 42.9297 52.4922 42.4141C53.0547 41.8828 53.5234 41.4219 53.8984 41.0312C54.2891 40.625 54.5312 40.3672 54.625 40.2578C54.7344 40.1328 54.8438 40.0703 54.9531 40.0703C55.0625 40.0547 55.1484 40.0859 55.2109 40.1641C55.2891 40.2422 55.3203 40.3594 55.3047 40.5156C55.3047 40.6562 55.2344 40.8203 55.0938 41.0078C54.875 41.3203 54.5469 41.7188 54.1094 42.2031C53.6719 42.6719 53.1719 43.1719 52.6094 43.7031C52.0469 44.2188 51.4375 44.7422 50.7812 45.2734C50.1406 45.7891 49.5 46.2344 48.8594 46.6094C48.7188 46.6875 48.5625 46.7891 48.3906 46.9141C48.1719 47.8359 47.9609 48.7422 47.7578 49.6328C47.5547 50.5234 47.3281 51.3516 47.0781 52.1172C46.8438 52.8672 46.6328 53.5234 46.4453 54.0859C46.2578 54.6641 46.0625 55.1406 45.8594 55.5156C45.6562 55.8906 45.4297 56.1719 45.1797 56.3594C44.9141 56.5469 44.5938 56.6406 44.2188 56.6406ZM43.375 53.6875C43.3438 54.2344 43.3828 54.6406 43.4922 54.9062C43.6016 55.1875 43.75 55.3281 43.9375 55.3281C44.0625 55.3281 44.2031 55.1953 44.3594 54.9297C44.5 54.6641 44.6406 54.3281 44.7812 53.9219C44.9062 53.5156 45.0391 53.0703 45.1797 52.5859C45.3047 52.1172 45.4219 51.6719 45.5312 51.25C45.625 50.8281 45.7031 50.4688 45.7656 50.1719C45.8281 49.875 45.8672 49.7031 45.8828 49.6562C45.9141 49.5312 45.9453 49.3984 45.9766 49.2578C46.0078 49.1172 46.0391 48.9609 46.0703 48.7891C45.7109 49.1641 45.375 49.5469 45.0625 49.9375C44.7344 50.3438 44.4531 50.7578 44.2188 51.1797C43.9688 51.6016 43.7734 52.0234 43.6328 52.4453C43.4766 52.8672 43.3906 53.2812 43.375 53.6875ZM58.8438 31.5156C58.8438 31.6562 58.7891 31.8281 58.6797 32.0312C58.5859 32.2188 58.4531 32.3984 58.2812 32.5703C58.125 32.7266 57.9453 32.8672 57.7422 32.9922C57.5547 33.1016 57.3594 33.1562 57.1562 33.1562C56.9844 33.1562 56.8281 33.0703 56.6875 32.8984C56.5469 32.7266 56.4844 32.4922 56.5 32.1953C56.5 31.9922 56.5547 31.7812 56.6641 31.5625C56.7891 31.3281 56.9375 31.1172 57.1094 30.9297C57.2969 30.7422 57.4922 30.5938 57.6953 30.4844C57.9141 30.3594 58.1172 30.2969 58.3047 30.2969C58.5703 30.2969 58.7266 30.4219 58.7734 30.6719C58.8359 30.9219 58.8594 31.2031 58.8438 31.5156ZM50.6406 56.6406C50.2188 56.6406 49.8516 56.5234 49.5391 56.2891C49.2266 56.0547 48.9766 55.7578 48.7891 55.3984C48.5859 55.0391 48.4375 54.6484 48.3438 54.2266C48.25 53.8047 48.2109 53.4062 48.2266 53.0312C48.2422 52.7031 48.3672 52.2812 48.6016 51.7656C48.8203 51.25 49.1328 50.6953 49.5391 50.1016C49.9453 49.5234 50.4375 48.9297 51.0156 48.3203C51.5938 47.7266 52.2344 47.1953 52.9375 46.7266C53.0312 46.2422 53.1328 45.75 53.2422 45.25C53.3359 44.7344 53.4297 44.2422 53.5234 43.7734C53.6172 43.2891 53.7109 42.8359 53.8047 42.4141C53.9141 41.9766 54.0156 41.5938 54.1094 41.2656C54.2188 40.8438 54.3359 40.3984 54.4609 39.9297C54.5703 39.5234 54.6953 39.0781 54.8359 38.5938C54.9766 38.0938 55.125 37.5938 55.2812 37.0938C55.4375 37.0156 55.5859 36.9609 55.7266 36.9297C55.8672 36.8984 55.9922 36.875 56.1016 36.8594C56.2266 36.8438 56.3438 36.8438 56.4531 36.8594C56.5625 36.875 56.6719 36.9062 56.7812 36.9531C56.9844 37.0312 57.1641 37.1719 57.3203 37.375C57.0547 38.2188 56.8281 38.9375 56.6406 39.5312C56.4688 40.125 56.3203 40.6172 56.1953 41.0078C56.0547 41.4609 55.9453 41.8438 55.8672 42.1562C55.7266 42.5938 55.6016 43.0938 55.4922 43.6562C55.3828 44.2031 55.2578 44.7969 55.1172 45.4375C55.7734 45.0312 56.4297 44.5547 57.0859 44.0078C57.7578 43.4609 58.3672 42.9297 58.9141 42.4141C59.4766 41.8828 59.9453 41.4219 60.3203 41.0312C60.7109 40.625 60.9531 40.3672 61.0469 40.2578C61.1562 40.1328 61.2656 40.0703 61.375 40.0703C61.4844 40.0547 61.5703 40.0859 61.6328 40.1641C61.7109 40.2422 61.7422 40.3594 61.7266 40.5156C61.7266 40.6562 61.6562 40.8203 61.5156 41.0078C61.2969 41.3203 60.9688 41.7188 60.5312 42.2031C60.0938 42.6719 59.5938 43.1719 59.0312 43.7031C58.4688 44.2188 57.8594 44.7422 57.2031 45.2734C56.5625 45.7891 55.9219 46.2344 55.2812 46.6094C55.1406 46.6875 54.9844 46.7891 54.8125 46.9141C54.5938 47.8359 54.3828 48.7422 54.1797 49.6328C53.9766 50.5234 53.75 51.3516 53.5 52.1172C53.2656 52.8672 53.0547 53.5234 52.8672 54.0859C52.6797 54.6641 52.4844 55.1406 52.2812 55.5156C52.0781 55.8906 51.8516 56.1719 51.6016 56.3594C51.3359 56.5469 51.0156 56.6406 50.6406 56.6406ZM49.7969 53.6875C49.7656 54.2344 49.8047 54.6406 49.9141 54.9062C50.0234 55.1875 50.1719 55.3281 50.3594 55.3281C50.4844 55.3281 50.625 55.1953 50.7812 54.9297C50.9219 54.6641 51.0625 54.3281 51.2031 53.9219C51.3281 53.5156 51.4609 53.0703 51.6016 52.5859C51.7266 52.1172 51.8438 51.6719 51.9531 51.25C52.0469 50.8281 52.125 50.4688 52.1875 50.1719C52.25 49.875 52.2891 49.7031 52.3047 49.6562C52.3359 49.5312 52.3672 49.3984 52.3984 49.2578C52.4297 49.1172 52.4609 48.9609 52.4922 48.7891C52.1328 49.1641 51.7969 49.5469 51.4844 49.9375C51.1562 50.3438 50.875 50.7578 50.6406 51.1797C50.3906 51.6016 50.1953 52.0234 50.0547 52.4453C49.8984 52.8672 49.8125 53.2812 49.7969 53.6875ZM71.7109 41.3359C71.4922 41.6484 71.2109 42.0391 70.8672 42.5078C70.5234 42.9609 70.1641 43.4219 69.7891 43.8906C69.4297 44.3438 69.0703 44.7656 68.7109 45.1562C68.3672 45.5312 68.0781 45.7969 67.8438 45.9531C67.6875 46.0469 67.5078 46.125 67.3047 46.1875C67.1016 46.25 66.8906 46.2891 66.6719 46.3047C66.4688 46.3203 66.2734 46.3047 66.0859 46.2578C65.8984 46.2266 65.7344 46.1641 65.5938 46.0703C65.4531 45.9609 65.3359 45.8047 65.2422 45.6016C65.1641 45.4297 65.0859 45.2031 65.0078 44.9219C64.9453 44.6406 64.9219 44.2891 64.9375 43.8672C64.5625 44.4922 64.1484 44.9766 63.6953 45.3203C63.2422 45.6484 62.8125 45.8906 62.4062 46.0469C61.9375 46.2188 61.4688 46.3203 61 46.3516C60.7812 46.3516 60.5469 46.2734 60.2969 46.1172C60.0469 45.9766 59.8359 45.75 59.6641 45.4375C59.4922 45.1094 59.3828 44.6953 59.3359 44.1953C59.2891 43.6797 59.3516 43.0703 59.5234 42.3672C59.7422 41.4141 60.0859 40.5469 60.5547 39.7656C61.0391 38.9844 61.5625 38.3203 62.125 37.7734C62.6875 37.2109 63.2422 36.7891 63.7891 36.5078C64.3359 36.2266 64.7891 36.1016 65.1484 36.1328C65.5703 36.2109 65.9141 36.3359 66.1797 36.5078C66.3984 36.6641 66.5391 36.8984 66.6016 37.2109C66.6797 37.5078 66.5547 37.9062 66.2266 38.4062C66.4453 38.3594 66.625 38.3281 66.7656 38.3125C66.9219 38.2969 67.0391 38.2891 67.1172 38.2891C67.2109 38.2891 67.2734 38.2969 67.3047 38.3125C67.3203 38.3438 67.3281 38.4141 67.3281 38.5234C67.3281 38.6172 67.3047 38.7969 67.2578 39.0625C67.2109 39.3281 67.1406 39.6875 67.0469 40.1406C66.9531 40.5938 66.8281 41.1797 66.6719 41.8984C66.6406 42.0391 66.6094 42.1719 66.5781 42.2969C66.5625 42.4062 66.5391 42.5234 66.5078 42.6484C66.4922 42.7578 66.4688 42.8906 66.4375 43.0469C66.4062 43.2031 66.3672 43.3984 66.3203 43.6328C66.3047 43.7734 66.2969 43.9297 66.2969 44.1016C66.3125 44.2578 66.3438 44.4062 66.3906 44.5469C66.4375 44.6875 66.5078 44.8047 66.6016 44.8984C66.7109 44.9766 66.8594 45.0156 67.0469 45.0156C67.2031 45.0156 67.4062 44.9219 67.6562 44.7344C67.9062 44.5312 68.1719 44.2812 68.4531 43.9844C68.7344 43.6719 69.0234 43.3359 69.3203 42.9766C69.6328 42.6016 69.9219 42.2422 70.1875 41.8984C70.4531 41.5547 70.6875 41.25 70.8906 40.9844C71.1094 40.7188 71.2656 40.5234 71.3594 40.3984C71.4844 40.2578 71.6094 40.1797 71.7344 40.1641C71.8594 40.1328 71.9531 40.1641 72.0156 40.2578C72.0781 40.3516 72.0859 40.4922 72.0391 40.6797C72.0078 40.8672 71.8984 41.0859 71.7109 41.3359ZM64.8438 42.3672C64.9219 42.0547 65.0156 41.6875 65.125 41.2656C65.2344 40.8438 65.3281 40.4375 65.4062 40.0469C65.4844 39.6562 65.5391 39.3359 65.5703 39.0859C65.6172 38.8203 65.6094 38.6953 65.5469 38.7109C65.4688 38.7266 65.3828 38.75 65.2891 38.7812C65.2109 38.8125 65.1094 38.8359 64.9844 38.8516C64.8594 38.8672 64.7344 38.8906 64.6094 38.9219C64.7344 38.6719 64.8047 38.4688 64.8203 38.3125C64.8516 38.1406 64.8594 38.0078 64.8438 37.9141C64.8281 37.8047 64.7969 37.7188 64.75 37.6562C64.5781 37.5156 64.2734 37.6328 63.8359 38.0078C63.4141 38.3672 62.9219 39.0391 62.3594 40.0234C62.125 40.4297 61.9375 40.8672 61.7969 41.3359C61.6562 41.7891 61.5547 42.2188 61.4922 42.625C61.4453 43.0312 61.4375 43.3906 61.4688 43.7031C61.5 44 61.5625 44.1953 61.6562 44.2891C61.8281 44.4609 62.0234 44.5469 62.2422 44.5469C62.4609 44.5312 62.6797 44.4688 62.8984 44.3594C63.1328 44.2344 63.3594 44.0781 63.5781 43.8906C63.8125 43.7031 64.0156 43.5078 64.1875 43.3047C64.375 43.1016 64.5234 42.9141 64.6328 42.7422C64.7578 42.5703 64.8281 42.4453 64.8438 42.3672ZM77.1016 46.5859C76.7422 46.5859 76.4297 46.5156 76.1641 46.375C75.9141 46.25 75.7109 46.0781 75.5547 45.8594C75.3984 45.6406 75.2969 45.3906 75.25 45.1094C75.2031 44.8125 75.2188 44.5 75.2969 44.1719C75.3438 43.9531 75.4219 43.6641 75.5312 43.3047C75.6406 42.9297 75.75 42.5312 75.8594 42.1094C75.9844 41.6719 76.0938 41.2422 76.1875 40.8203C76.2969 40.3828 76.3672 39.9922 76.3984 39.6484C76.4297 39.2891 76.4141 39 76.3516 38.7812C76.2891 38.5469 76.1562 38.4297 75.9531 38.4297C75.7031 38.4297 75.4453 38.5156 75.1797 38.6875C74.9141 38.8438 74.6406 39.0625 74.3594 39.3438C74.0938 39.625 73.8203 39.9531 73.5391 40.3281C73.2734 40.6875 73.0078 41.0625 72.7422 41.4531C72.6016 41.9844 72.4844 42.4531 72.3906 42.8594C72.2969 43.25 72.2109 43.6094 72.1328 43.9375C72.0703 44.25 72.0078 44.5312 71.9453 44.7812C71.8828 45.0156 71.8281 45.2422 71.7812 45.4609C71.7344 45.6172 71.5938 45.7734 71.3594 45.9297C71.125 46.0703 70.875 46.1875 70.6094 46.2812C70.3438 46.375 70.1172 46.4219 69.9297 46.4219C69.7266 46.4219 69.6406 46.3516 69.6719 46.2109C69.6875 46.1172 69.7422 45.9062 69.8359 45.5781C69.9141 45.25 70.0156 44.8672 70.1406 44.4297C70.25 43.9766 70.3672 43.5 70.4922 43C70.6172 42.5 70.7344 42.0234 70.8438 41.5703C70.9219 41.2109 71.0078 40.8125 71.1016 40.375C71.1797 40 71.2734 39.5625 71.3828 39.0625C71.5078 38.5625 71.6484 38.0156 71.8047 37.4219C71.9141 37.3281 72.0234 37.2578 72.1328 37.2109C72.2578 37.1484 72.3828 37.1016 72.5078 37.0703C72.6328 37.0234 72.7656 36.9922 72.9062 36.9766C73.0312 36.9766 73.1562 36.9844 73.2812 37C73.3906 37.0156 73.5 37.0469 73.6094 37.0938C73.7344 37.125 73.8438 37.1797 73.9375 37.2578C73.8906 37.3672 73.8359 37.5234 73.7734 37.7266C73.7109 37.9141 73.6484 38.1172 73.5859 38.3359C73.5234 38.5859 73.4453 38.8438 73.3516 39.1094C73.5547 38.8281 73.7812 38.5469 74.0312 38.2656C74.2969 37.9688 74.5781 37.7031 74.875 37.4688C75.1875 37.2344 75.5156 37.0469 75.8594 36.9062C76.2031 36.75 76.5547 36.6719 76.9141 36.6719C77.2109 36.6719 77.4766 36.7578 77.7109 36.9297C77.9453 37.1016 78.125 37.3438 78.25 37.6562C78.3906 37.9531 78.4688 38.3125 78.4844 38.7344C78.5156 39.1562 78.4609 39.6172 78.3203 40.1172L78.0625 41.1484C77.9844 41.4766 77.8828 41.8672 77.7578 42.3203C77.6484 42.7578 77.5078 43.2422 77.3359 43.7734C77.2422 44.1172 77.2031 44.4141 77.2188 44.6641C77.25 44.9141 77.4062 45.0391 77.6875 45.0391C77.9688 45.0391 78.3203 44.8672 78.7422 44.5234C79.1797 44.1797 79.6172 43.7656 80.0547 43.2812C80.4922 42.7969 80.9062 42.3047 81.2969 41.8047C81.6875 41.2891 81.9844 40.875 82.1875 40.5625C82.3281 40.3594 82.4609 40.2266 82.5859 40.1641C82.7109 40.1016 82.8047 40.0938 82.8672 40.1406C82.9453 40.1875 82.9844 40.2969 82.9844 40.4688C82.9844 40.625 82.9219 40.8281 82.7969 41.0781C82.6875 41.2969 82.5156 41.5859 82.2812 41.9453C82.0625 42.3047 81.7969 42.6875 81.4844 43.0938C81.1719 43.5 80.8359 43.9141 80.4766 44.3359C80.1172 44.7422 79.7422 45.1172 79.3516 45.4609C78.9609 45.7891 78.5703 46.0547 78.1797 46.2578C77.8047 46.4766 77.4453 46.5859 77.1016 46.5859Z" fill="white"/>
</svg>
