<svg width="144" height="124" viewBox="0 0 144 124" fill="none" xmlns="http://www.w3.org/2000/svg">
<path d="M55.5898 69.1401C57.2298 70.2801 58.9498 71.4701 60.5398 72.5701C61.4798 73.2101 62.3399 73.7901 63.0199 74.2401C63.3299 74.5301 63.8198 74.8601 64.1698 75.1301C63.9798 74.9701 64.0798 74.9801 64.2298 75.0901C65.3298 75.8701 64.3299 75.1001 65.4599 75.8601C66.0899 76.2601 67.5199 77.2701 68.9599 78.3001C70.9899 79.7601 73.0498 81.2401 74.0298 81.9401C74.0998 81.7101 74.1298 81.5701 74.1698 81.4601C74.3098 80.7401 74.4998 80.0201 74.6798 79.3101C74.7698 78.9501 74.8699 78.6001 74.9599 78.2501C74.9899 78.1101 75.0298 77.9701 75.0598 77.8401C75.0798 77.7401 75.0998 77.6501 75.1198 77.5601V77.6401C75.2898 76.8701 76.5198 72.5901 76.7198 71.7001L76.6798 71.8201C76.8298 71.0301 76.8998 71.1701 77.0898 70.5701C76.9698 70.6201 77.0798 69.9501 77.1398 69.6901L77.1599 69.7101C77.2399 69.3301 77.3798 68.4401 77.5298 67.8101L77.5798 67.8501C77.6598 67.3101 77.9398 66.3301 78.0398 65.9601C78.2898 65.1101 78.7398 63.8101 78.9698 62.6401L79.3298 61.9401L79.3398 61.8301L79.6998 59.2401C79.7698 58.6501 77.3098 60.0201 77.2798 59.9501C77.4598 59.8801 77.6399 59.8001 77.6898 59.8001C77.6299 59.7901 77.2799 59.9201 77.0999 60.0201V60.1101C76.6799 60.3201 76.9799 60.1101 76.5699 60.2901C76.5199 60.2401 76.8998 60.0601 77.2298 59.9101C76.9198 60.0301 76.5998 60.1101 76.5098 60.2301C76.2098 60.3301 76.5099 60.1401 76.1599 60.2601C75.9199 60.3801 75.6298 60.5801 75.3298 60.6601V60.6501C74.6199 60.8701 74.3198 61.1901 73.6698 61.3901L73.7298 61.3401C73.4998 61.4001 73.0799 61.6301 72.6599 61.7601C72.7799 61.7201 72.8999 61.7301 72.6599 61.8401C72.1899 61.9901 71.8898 62.1701 71.5298 62.2601L71.2298 62.4601C69.6298 63.1201 63.3699 65.8701 61.7699 66.5601L61.8298 66.5201C60.2698 67.1401 58.0198 68.1001 55.5898 69.1401Z" fill="white"/>
<path d="M50.8001 49.1C52.4301 47.94 54.1301 46.73 55.7101 45.61C56.6301 44.95 57.4701 44.33 58.1201 43.84C58.5001 43.65 58.9701 43.3 59.3401 43.06C59.1201 43.18 59.1701 43.09 59.3201 42.98C60.4301 42.21 59.3701 42.89 60.4701 42.09C61.0601 41.64 62.4901 40.63 63.9501 39.63C66.0101 38.22 68.1001 36.78 69.0901 36.1C68.9001 35.96 68.7801 35.88 68.6801 35.81C68.0501 35.43 67.4401 35.02 66.8301 34.59C66.5301 34.38 66.2201 34.17 65.9301 33.97C65.8101 33.89 65.6901 33.81 65.5801 33.73C65.5001 33.68 65.4201 33.63 65.3401 33.58L65.4101 33.6C64.7401 33.18 61.1301 30.57 60.3601 30.07L60.4501 30.15C59.7601 29.74 59.9101 29.72 59.4101 29.34C59.4201 29.47 58.8201 29.13 58.6001 28.99L58.6201 28.98C58.2901 28.77 57.5001 28.34 56.9601 27.98L57.0101 27.94C56.5301 27.68 55.7101 27.08 55.3801 26.87C54.6601 26.34 53.5901 25.48 52.5701 24.86L52.0301 24.28L51.9301 24.23L49.6101 23.01C49.0801 22.74 49.5301 25.52 49.4601 25.53C49.4501 25.34 49.4401 25.15 49.4501 25.09C49.4201 25.14 49.4201 25.52 49.4501 25.72L49.5301 25.75C49.5801 26.21 49.4901 25.86 49.5201 26.31C49.4501 26.34 49.4201 25.92 49.3901 25.56C49.4001 25.89 49.3701 26.22 49.4501 26.35C49.4401 26.66 49.3701 26.32 49.3601 26.69C49.3901 26.95 49.4801 27.3 49.4501 27.61L49.4401 27.6C49.4101 28.35 49.6001 28.73 49.5701 29.41L49.5401 29.34C49.5101 29.58 49.5901 30.05 49.5701 30.49C49.5801 30.37 49.6201 30.26 49.6401 30.51C49.6201 31.01 49.6801 31.35 49.6501 31.71L49.7301 32.05C49.8101 33.78 50.2601 40.61 50.3701 42.34L50.3601 42.27C50.5101 44.01 50.6501 46.46 50.8001 49.1Z" fill="white"/>
<path d="M22.7002 1.81006C23.3302 2.61006 23.9902 3.46005 24.6002 4.24005C24.9602 4.69005 25.2902 5.11006 25.5602 5.43006C25.6702 5.62006 25.8602 5.85007 25.9902 6.04007C25.9202 5.93007 25.9702 5.95006 26.0302 6.03006C26.4502 6.58006 26.0802 6.05006 26.5102 6.59006C26.7502 6.88006 27.3002 7.59006 27.8502 8.31006C28.6202 9.33006 29.4002 10.3601 29.7702 10.8501C29.8402 10.7501 29.8802 10.6901 29.9102 10.6401C30.0902 10.3101 30.2902 9.99008 30.4902 9.67008C30.5902 9.51008 30.6902 9.35007 30.7902 9.19007C30.8302 9.13007 30.8702 9.07006 30.9002 9.00006C30.9202 8.96006 30.9502 8.91006 30.9702 8.87006L30.9602 8.91007C31.1602 8.56007 32.4102 6.66006 32.6402 6.25006L32.6002 6.30005C32.7902 5.94005 32.8102 6.01006 32.9902 5.75006C32.9202 5.76006 33.0802 5.44005 33.1502 5.33005L33.1602 5.34006C33.2602 5.16006 33.4602 4.75007 33.6302 4.47007L33.6502 4.50006C33.7702 4.25006 34.0602 3.82008 34.1602 3.64008C34.4102 3.26008 34.8302 2.70007 35.1202 2.16007L35.4002 1.87006L35.4202 1.82007L35.9902 0.61005C36.1202 0.33005 34.7102 0.630061 34.7002 0.590061C34.8002 0.580061 34.9002 0.570051 34.9302 0.580051C34.9002 0.560051 34.7102 0.57007 34.6102 0.60007L34.6002 0.640079C34.3702 0.680079 34.5402 0.620058 34.3102 0.650058C34.2902 0.620058 34.5102 0.590072 34.6902 0.570072C34.5202 0.580072 34.3502 0.570059 34.2902 0.620059C34.1302 0.620059 34.3002 0.580051 34.1102 0.580051C33.9802 0.600051 33.8002 0.650058 33.6402 0.650058V0.640079C33.2602 0.640079 33.0702 0.750064 32.7202 0.750064L32.7602 0.730075C32.6402 0.720075 32.4002 0.770053 32.1802 0.770053C32.2402 0.770053 32.3002 0.790062 32.1702 0.810062C31.9102 0.810062 31.7402 0.850061 31.5602 0.840061L31.3902 0.890079C30.5102 0.970079 27.0402 1.36006 26.1502 1.46006L26.1802 1.45008C25.2902 1.55008 24.0502 1.68006 22.7002 1.81006Z" fill="white"/>
<path d="M134.58 56.2901C135.4 55.6801 136.26 55.0401 137.05 54.4501C137.51 54.1001 137.94 53.7801 138.26 53.5201C138.45 53.4201 138.69 53.2401 138.88 53.1101C138.77 53.1701 138.79 53.1301 138.87 53.0701C139.43 52.6701 138.89 53.0201 139.45 52.6001C139.75 52.3601 140.47 51.8301 141.2 51.3001C142.24 50.5501 143.29 49.8001 143.79 49.4401C143.69 49.3701 143.63 49.3301 143.58 49.2901C143.25 49.1001 142.94 48.9001 142.62 48.6901C142.46 48.5901 142.3 48.4801 142.15 48.3801C142.09 48.3401 142.03 48.3001 141.97 48.2601C141.93 48.2401 141.89 48.2101 141.84 48.1901L141.88 48.2001C141.53 47.9901 139.66 46.7001 139.26 46.4601L139.31 46.5001C138.95 46.3001 139.03 46.2901 138.77 46.1001C138.78 46.1701 138.47 46.0001 138.35 45.9301L138.36 45.9201C138.19 45.8201 137.78 45.6101 137.5 45.4301L137.53 45.4101C137.28 45.2801 136.86 44.9901 136.69 44.8801C136.32 44.6201 135.76 44.1901 135.23 43.8901L134.95 43.6001L134.9 43.5801L133.7 42.9801C133.42 42.8501 133.69 44.2601 133.65 44.2701C133.64 44.1701 133.64 44.0701 133.64 44.0401C133.62 44.0701 133.63 44.2601 133.65 44.3601L133.69 44.3701C133.72 44.6001 133.67 44.4301 133.69 44.6601C133.66 44.6701 133.63 44.4601 133.62 44.2801C133.63 44.4501 133.62 44.6201 133.66 44.6801C133.66 44.8401 133.62 44.6701 133.62 44.8601C133.64 44.9901 133.69 45.1701 133.68 45.3301H133.67C133.66 45.7101 133.77 45.9001 133.76 46.2501L133.75 46.2101C133.74 46.3301 133.78 46.5701 133.78 46.7901C133.78 46.7301 133.8 46.6701 133.82 46.8001C133.82 47.0601 133.85 47.2301 133.84 47.4101L133.89 47.5801C133.95 48.4601 134.26 51.9401 134.33 52.8301L134.32 52.8001C134.38 53.7001 134.48 54.9501 134.58 56.2901Z" fill="white"/>
<path d="M49 118.13C50.93 118.64 52.95 119.17 54.82 119.67C55.92 119.95 56.93 120.21 57.72 120.39C58.11 120.56 58.68 120.7 59.1 120.83C58.87 120.74 58.96 120.72 59.15 120.77C60.45 121.13 59.25 120.75 60.57 121.08C61.3 121.25 62.98 121.7 64.69 122.18C67.1 122.86 69.54 123.54 70.69 123.87C70.67 123.63 70.66 123.49 70.65 123.37C70.54 122.64 70.47 121.91 70.4 121.17C70.37 120.8 70.33 120.43 70.3 120.08C70.29 119.94 70.27 119.8 70.26 119.66C70.25 119.57 70.23 119.47 70.22 119.38L70.25 119.45C70.14 118.67 69.84 114.22 69.73 113.32V113.44C69.6 112.65 69.71 112.75 69.69 112.12C69.59 112.21 69.47 111.54 69.44 111.28L69.46 111.29C69.41 110.9 69.24 110.02 69.16 109.38L69.22 109.4C69.11 108.87 69.05 107.85 69 107.46C68.95 106.57 68.93 105.2 68.74 104.02L68.84 103.24L68.81 103.13L68.27 100.57C68.14 99.9901 66.29 102.12 66.24 102.07C66.38 101.94 66.52 101.81 66.58 101.78C66.52 101.79 66.23 102.03 66.1 102.18L66.13 102.26C65.81 102.6 66.02 102.3 65.69 102.61C65.63 102.58 65.92 102.28 66.19 102.03C65.94 102.25 65.67 102.44 65.62 102.58C65.37 102.77 65.59 102.5 65.3 102.73C65.12 102.93 64.91 103.21 64.66 103.39V103.38C64.07 103.83 63.9 104.23 63.35 104.64L63.39 104.57C63.19 104.7 62.88 105.06 62.53 105.33C62.63 105.26 62.74 105.22 62.56 105.4C62.17 105.71 61.95 105.97 61.64 106.18L61.43 106.47C60.15 107.64 55.2 112.36 53.93 113.55L53.97 113.5C52.72 114.65 50.93 116.32 49 118.13Z" fill="white"/>
<path d="M94 80.3455C95.34 81.8255 96.74 83.3854 98.03 84.8254C98.8 85.6654 99.5 86.4254 100.06 87.0154C100.3 87.3754 100.69 87.8054 100.97 88.1454C100.83 87.9454 100.92 87.9754 101.04 88.1254C101.93 89.1354 101.13 88.1655 102.06 89.1655C102.58 89.7055 103.74 91.0054 104.91 92.3354C106.55 94.2254 108.22 96.1355 109.01 97.0355C109.13 96.8255 109.19 96.7055 109.25 96.5955C109.55 95.9255 109.9 95.2755 110.25 94.6155C110.42 94.2855 110.6 93.9654 110.76 93.6454C110.83 93.5154 110.89 93.3954 110.95 93.2654C110.99 93.1754 111.03 93.0954 111.07 93.0054L111.06 93.0854C111.4 92.3754 113.58 88.4855 113.98 87.6655L113.91 87.7654C114.23 87.0354 114.27 87.1754 114.6 86.6454C114.47 86.6654 114.73 86.0355 114.85 85.8055L114.87 85.8254C115.04 85.4754 115.38 84.6454 115.67 84.0654L115.71 84.1155C115.91 83.6055 116.41 82.7254 116.59 82.3754C117.03 81.6054 117.77 80.4454 118.26 79.3554L118.77 78.7555L118.81 78.6454L119.76 76.2054C119.97 75.6454 117.25 76.4155 117.24 76.3455C117.43 76.3155 117.62 76.2855 117.68 76.2855C117.63 76.2555 117.25 76.3054 117.06 76.3554L117.04 76.4455C116.59 76.5555 116.93 76.4154 116.48 76.4954C116.44 76.4354 116.85 76.3455 117.21 76.2855C116.89 76.3355 116.55 76.3354 116.43 76.4354C116.12 76.4554 116.45 76.3454 116.08 76.3854C115.82 76.4454 115.49 76.5754 115.18 76.5854V76.5754C114.44 76.6354 114.08 76.8655 113.4 76.9155L113.47 76.8854C113.23 76.8854 112.77 77.0154 112.34 77.0454C112.46 77.0354 112.58 77.0654 112.32 77.1154C111.82 77.1554 111.5 77.2554 111.13 77.2654L110.8 77.3854C109.09 77.6654 102.36 78.8955 100.65 79.1955L100.71 79.1754C99.02 79.4754 96.61 79.8955 94 80.3455Z" fill="white"/>
<path d="M83.2002 47.4801C85.1502 47.9101 87.1902 48.36 89.0802 48.78C90.1902 49.02 91.2102 49.2301 92.0102 49.3801C92.4102 49.5401 92.9802 49.65 93.4102 49.77C93.1802 49.69 93.2702 49.66 93.4602 49.71C94.7702 50.01 93.5602 49.69 94.8902 49.96C95.6202 50.1 97.3302 50.4801 99.0502 50.8901C101.48 51.4701 103.95 52.05 105.12 52.33C105.09 52.09 105.08 51.95 105.06 51.83C104.92 51.11 104.82 50.3801 104.72 49.6401C104.67 49.2701 104.62 48.91 104.58 48.55C104.56 48.41 104.54 48.2701 104.52 48.1301C104.5 48.0301 104.48 47.9401 104.47 47.8501L104.5 47.9201C104.36 47.1401 103.88 42.71 103.73 41.81V41.93C103.57 41.15 103.69 41.24 103.64 40.61C103.54 40.71 103.39 40.04 103.35 39.78L103.38 39.7901C103.31 39.4001 103.1 38.5301 103.01 37.8901L103.07 37.9101C102.94 37.3801 102.83 36.3701 102.78 35.9801C102.69 35.1001 102.61 33.72 102.38 32.55L102.45 31.77L102.42 31.6601L101.77 29.12C101.61 28.54 99.8502 30.7501 99.8002 30.7001C99.9402 30.5601 100.08 30.43 100.12 30.4C100.06 30.41 99.7802 30.6701 99.6502 30.8201L99.6802 30.9C99.3702 31.25 99.5702 30.94 99.2602 31.27C99.2002 31.24 99.4802 30.9301 99.7302 30.6701C99.4902 30.9001 99.2302 31.1 99.1802 31.24C98.9402 31.44 99.1502 31.16 98.8602 31.4C98.6902 31.6 98.4902 31.9 98.2402 32.08V32.0701C97.6702 32.5501 97.5102 32.9501 96.9802 33.3801L97.0202 33.31C96.8202 33.45 96.5302 33.8201 96.1902 34.1001C96.2902 34.0201 96.4002 33.9801 96.2202 34.1701C95.8402 34.4901 95.6302 34.76 95.3402 34.99L95.1402 35.28C93.9102 36.5 89.1502 41.4201 87.9402 42.6601L87.9802 42.6001C86.7702 43.8501 85.0502 45.5901 83.2002 47.4801Z" fill="white"/>
<path d="M27.1602 94.3301C29.1502 94.5101 31.2302 94.7101 33.1602 94.8901C34.2902 94.9901 35.3302 95.0701 36.1402 95.1201C36.5602 95.2201 37.1402 95.2701 37.5802 95.3301C37.3402 95.2801 37.4301 95.2401 37.6201 95.2601C38.9601 95.4001 37.7202 95.2201 39.0702 95.3301C39.8102 95.3701 41.5501 95.54 43.3102 95.73C45.8001 96 48.3201 96.27 49.5101 96.41C49.4501 96.18 49.4202 96.04 49.3902 95.92C49.1602 95.22 48.9702 94.51 48.7802 93.79C48.6802 93.43 48.5902 93.08 48.5002 92.73C48.4602 92.59 48.4202 92.4601 48.3802 92.3201C48.3502 92.2301 48.3201 92.1401 48.2901 92.0501L48.3302 92.1201C48.1002 91.3701 47.0602 87.03 46.8002 86.16L46.8202 86.2801C46.5602 85.5201 46.6901 85.6001 46.5602 84.9901C46.4802 85.1001 46.2502 84.4501 46.1702 84.2001H46.2001C46.0801 83.8201 45.7701 82.99 45.5901 82.36L45.6501 82.3701C45.4501 81.8601 45.2201 80.8701 45.1201 80.4901C44.9201 79.6201 44.6702 78.2701 44.3002 77.1401L44.2702 76.35L44.2301 76.2401L43.2702 73.8101C43.0402 73.2601 41.5702 75.6701 41.5202 75.6201C41.6402 75.4701 41.7602 75.3201 41.8002 75.2801C41.7402 75.3001 41.5002 75.5901 41.3902 75.7601L41.4301 75.8401C41.1701 76.2301 41.3302 75.9001 41.0502 76.2601C40.9802 76.2401 41.2202 75.9 41.4402 75.61C41.2302 75.87 40.9902 76.1001 40.9702 76.2501C40.7602 76.4801 40.9301 76.1701 40.6801 76.4501C40.5301 76.6701 40.3701 76.9901 40.1501 77.2101L40.1402 77.2001C39.6302 77.7401 39.5302 78.16 39.0602 78.66L39.0901 78.5901C38.9101 78.7601 38.6701 79.16 38.3701 79.48C38.4601 79.39 38.5602 79.3401 38.4102 79.5501C38.0702 79.9201 37.9002 80.21 37.6402 80.47L37.4801 80.79C36.4101 82.15 32.3102 87.6301 31.2502 89.0101L31.2802 88.9501C30.2502 90.2801 28.7602 92.2301 27.1602 94.3301Z" fill="white"/>
<path d="M26.9901 70.1501C25.9201 68.4701 24.7901 66.7001 23.7501 65.0701C23.1301 64.1201 22.5601 63.2401 22.1101 62.5701C21.9401 62.1801 21.6201 61.6901 21.3901 61.3101C21.5001 61.5301 21.4101 61.4901 21.3101 61.3201C20.6001 60.1801 21.2201 61.2701 20.4701 60.1301C20.0501 59.5101 19.1201 58.0401 18.1801 56.5301C16.8701 54.4001 15.5401 52.2401 14.9101 51.2201C14.7601 51.4101 14.6701 51.5201 14.6001 51.6101C14.1901 52.2201 13.7401 52.8101 13.2901 53.4001C13.0701 53.6901 12.8401 53.9901 12.6201 54.2701C12.5301 54.3901 12.4501 54.5001 12.3701 54.6101C12.3101 54.6901 12.2601 54.7701 12.2101 54.8501L12.2401 54.7801C11.7901 55.4301 9.0001 58.9001 8.4701 59.6401L8.56009 59.5501C8.12009 60.2201 8.1001 60.0701 7.6901 60.5501C7.8201 60.5501 7.4601 61.1301 7.3001 61.3401L7.2901 61.3201C7.0601 61.6401 6.59009 62.4001 6.21009 62.9301L6.1801 62.8701C5.9001 63.3401 5.26009 64.1301 5.03009 64.4401C4.47009 65.1301 3.55009 66.1501 2.88009 67.1401L2.28009 67.6501L2.2301 67.7501L0.890095 70.0001C0.590095 70.5201 3.4001 70.2101 3.4001 70.2801C3.2101 70.2801 3.02009 70.2801 2.96009 70.2601C3.01009 70.2901 3.39009 70.3101 3.59009 70.2901L3.6201 70.2101C4.0801 70.1801 3.7301 70.2601 4.1801 70.2501C4.2001 70.3201 3.79009 70.3301 3.42009 70.3401C3.75009 70.3501 4.08009 70.4001 4.21009 70.3201C4.52009 70.3501 4.1701 70.4001 4.5501 70.4301C4.8101 70.4101 5.1601 70.3401 5.4701 70.3801L5.46009 70.3901C6.20009 70.4601 6.60009 70.2801 7.27009 70.3501L7.20009 70.3701C7.44009 70.4101 7.91009 70.3501 8.34009 70.4001C8.22009 70.3901 8.1101 70.3401 8.3701 70.3301C8.8701 70.3701 9.2101 70.3301 9.5701 70.3801L9.92009 70.3101C11.6501 70.3201 18.4901 70.2101 20.2301 70.1901L20.1601 70.2001C21.8901 70.1901 24.3501 70.1701 26.9901 70.1501Z" fill="white"/>
</svg>
